<?xml version="1.0" encoding="utf-8"?>
<svg xmlns="http://www.w3.org/2000/svg" viewBox="0 0 128 128" width="128" height="128">
  <path d="M15,109.8l48,17c0,0,0,0,0,0c0.1,0,0.2,0.1,0.3,0.1c0.1,0,0.1,0,0.2,0c0.1,0,0.2,0,0.4,0c0,0,0.1,0,0.1,0c0.2,0,0.3,0,0.5,0 c0,0,0.1,0,0.1,0c0.1,0,0.2-0.1,0.3-0.1c0,0,0,0,0,0l48-17c1.2-0.4,2-1.6,2-2.8V73.4l10-3.5c0.8-0.3,1.5-1,1.8-1.8s0.2-1.8-0.3-2.6 l-12-20c0,0,0,0,0-0.1c0-0.1-0.1-0.1-0.1-0.2c0,0,0,0,0-0.1c0,0,0,0,0,0c0-0.1-0.1-0.1-0.1-0.2c0,0-0.1-0.1-0.1-0.1c0,0,0,0-0.1-0.1 c0,0,0,0-0.1,0c-0.1,0-0.1-0.1-0.2-0.1c0,0-0.1-0.1-0.1-0.1c0,0,0,0-0.1,0c0,0-0.1,0-0.1,0c-0.1,0-0.1-0.1-0.2-0.1 c-0.1,0-0.1,0-0.2-0.1c0,0,0,0-0.1,0c0,0,0,0,0,0l-48-17c-0.2-0.1-0.4-0.1-0.6-0.1c0,0-0.1,0-0.1,0c-0.2,0-0.3,0-0.5,0 c-0.1,0-0.1,0-0.2,0c-0.2,0-0.4,0.1-0.6,0.1l-48,17c0,0,0,0,0,0c0,0-0.1,0-0.1,0.1c0,0,0,0,0,0c-0.1,0.1-0.3,0.1-0.4,0.2 c0,0,0,0,0,0c0,0,0,0,0,0c-0.2,0.1-0.4,0.3-0.6,0.5l0,0c0,0-0.1,0.1-0.1,0.1c0,0,0,0,0,0c-0.1,0.1-0.1,0.2-0.2,0.2c0,0,0,0,0,0 c0,0,0,0-0.1,0.1l-12,20C1,66.2,0.9,67.2,1.2,68s1,1.5,1.8,1.8l10,3.5V107C13,108.3,13.8,109.4,15,109.8z M109,104.9l-42,14.9V95.7 c0-1.7-1.3-3-3-3s-3,1.3-3,3v24.1l-42-14.9V75.5l32,11.3c0.3,0.1,0.7,0.2,1,0.2c1,0,2-0.5,2.6-1.5L64,69.8l9.4,15.7 C74,86.5,75,87,76,87c0.3,0,0.7-0.1,1-0.2l32-11.3V104.9z M67,34.2L103,47L67,59.8V34.2z M77.3,80.4l-8.9-14.8l42.2-15l8.9,14.8 L77.3,80.4z M17.3,50.6l42.2,15l-8.9,14.8l-42.2-15L17.3,50.6z" fill="#7D7D7D" />
</svg>