<?xml version="1.0" encoding="UTF-8"?>
<svg id="b" data-name="Layer 2" xmlns="http://www.w3.org/2000/svg" xmlns:xlink="http://www.w3.org/1999/xlink" viewBox="0 0 58.56 60.03">
  <defs>
    <linearGradient id="d" x1="29.75" y1="57.4" x2="29.75" y2="22.74" gradientUnits="userSpaceOnUse">
      <stop offset=".35" stop-color="#e6e7e8"/>
      <stop offset="1" stop-color="#bcbec0"/>
    </linearGradient>
    <linearGradient id="e" x1="29.53" y1=".92" x2="29.53" y2="34.29" gradientUnits="userSpaceOnUse">
      <stop offset=".73" stop-color="#e6e7e8"/>
      <stop offset="1" stop-color="#bcbec0"/>
    </linearGradient>
  </defs>
  <g id="c" data-name="no messages - light">
    <ellipse cx="29.28" cy="30.01" rx="29.15" ry="29.89" style="fill: #e6e7e8; opacity: .63; stroke: #ddd; stroke-miterlimit: 10; stroke-width: .25px;"/>
    <rect x="12.42" y="22.22" width="34.67" height="22.07" rx="2.06" ry="2.06" style="fill: url(#d); stroke: #b6b6b7; stroke-linecap: round; stroke-linejoin: round; stroke-width: .15px;"/>
    <path d="M12.84,23.02c5.09-4.71,10.17-9.42,15.26-14.13.94-.87,2.39-.87,3.32,0,4.93,4.56,9.86,9.12,14.79,13.68l-14.5,11.7c-1.06.85-2.56.88-3.65.07l-15.22-11.33Z" style="fill: url(#e); stroke: #b6b6b7; stroke-linecap: round; stroke-linejoin: round; stroke-width: .15px;"/>
    <line x1="12.72" y1="40.65" x2="23.98" y2="31.53" style="fill: #e6e7e8; stroke: #ddd; stroke-miterlimit: 10; stroke-width: .25px;"/>
    <line x1="46.72" y1="40.43" x2="35.66" y2="31.38" style="fill: #e6e7e8; stroke: #ddd; stroke-miterlimit: 10; stroke-width: .25px;"/>
    <line x1="43.57" y1="24.18" x2="14.88" y2="24.18" style="fill: #e6e7e8; stroke: #ddd; stroke-miterlimit: 10; stroke-width: .25px;"/>
  </g>
</svg>