<?xml version="1.0" encoding="UTF-8"?>
<svg id="b" data-name="Layer 2" xmlns="http://www.w3.org/2000/svg" viewBox="0 0 117.48 51.98">
  <g id="c" data-name="Layer 1">
    <path d="M11.89,27.75v23.67H2.9V18.76h0c4.96,0,8.99,4.02,8.99,8.99Z"/>
    <g>
      <path d="M19.32,51.25V19.15h0c4.81,0,8.71,3.9,8.71,8.71v23.39h-8.71ZM40.19,51.25v-18.94c0-1.86-.58-3.31-1.73-4.35-1.15-1.04-2.59-1.56-4.32-1.56-1.15,0-2.18.23-3.09.7-.91.47-1.64,1.14-2.19,2.03-.55.89-.83,1.97-.83,3.26l-3.39-1.73c0-2.48.54-4.63,1.63-6.45,1.09-1.82,2.56-3.22,4.42-4.22,1.86-1,3.96-1.5,6.31-1.5,2.21,0,4.23.5,6.05,1.5,1.82,1,3.26,2.39,4.32,4.19,1.06,1.79,1.6,3.93,1.6,6.41v20.67h-8.77ZM61.12,51.25v-18.94c0-1.86-.58-3.31-1.73-4.35-1.15-1.04-2.57-1.56-4.25-1.56-1.2,0-2.25.23-3.16.7-.91.47-1.64,1.14-2.19,2.03-.55.89-.83,1.97-.83,3.26l-4.98-1.26c.13-2.61.81-4.85,2.03-6.71,1.22-1.86,2.8-3.31,4.75-4.35,1.95-1.04,4.12-1.56,6.51-1.56s4.54.5,6.45,1.5c1.9,1,3.42,2.43,4.55,4.29s1.7,4.1,1.7,6.71v20.27h-8.84Z"/>
      <path d="M81.33,13.96c-1.42,0-2.59-.48-3.52-1.43-.93-.95-1.4-2.14-1.4-3.56s.46-2.55,1.4-3.52c.93-.97,2.1-1.46,3.52-1.46s2.65.49,3.56,1.46c.91.98,1.36,2.15,1.36,3.52s-.46,2.6-1.36,3.56c-.91.95-2.09,1.43-3.56,1.43ZM76.87,51.25V19.15h0c4.88,0,8.84,3.96,8.84,8.84v23.26h-8.84Z"/>
      <path d="M104.52,51.98c-1.86,0-3.67-.23-5.42-.7-1.75-.47-3.36-1.15-4.82-2.06-1.46-.91-2.72-1.98-3.79-3.22l5.25-5.25c1.06,1.29,2.33,2.24,3.79,2.86,1.46.62,3.06.93,4.79.93,1.42,0,2.5-.21,3.26-.63.75-.42,1.13-1.01,1.13-1.76,0-.89-.4-1.56-1.2-2.03-.8-.47-1.81-.87-3.02-1.23-1.22-.35-2.51-.73-3.89-1.13-1.37-.4-2.67-.94-3.89-1.63-1.22-.69-2.23-1.65-3.02-2.89-.8-1.24-1.2-2.83-1.2-4.79s.51-3.82,1.53-5.35c1.02-1.53,2.46-2.7,4.32-3.52,1.86-.82,4.05-1.23,6.58-1.23,2.66,0,5.06.46,7.21,1.36,2.15.91,3.93,2.29,5.35,4.15l-1.66,1.69c-1.8,1.82-4.52,2.16-6.84,1.09-.01,0-.02-.01-.04-.02-1.22-.55-2.52-.83-3.89-.83s-2.33.2-2.99.6c-.66.4-1,.95-1,1.66,0,.8.38,1.41,1.13,1.83.75.42,1.75.81,2.99,1.16,1.24.35,2.54.74,3.89,1.16,1.35.42,2.63,1.01,3.85,1.76,1.22.75,2.21,1.75,2.99,2.99.77,1.24,1.16,2.84,1.16,4.79,0,3.15-1.13,5.64-3.39,7.48-2.26,1.84-5.32,2.76-9.17,2.76Z"/>
    </g>
  </g>
  <g id="d" data-name="Layer 2">
    <g>
      <circle cx="7.27" cy="7.27" r="7.27" style="fill: #00aff4; opacity: .1;"/>
      <path d="M14.44,8.46h0c-.57,3.45-3.56,6.08-7.17,6.08C3.26,14.54,0,11.29,0,7.27c0-.11,0-.21,0-.32,0-.04.01-.09.02-.13,2.52-1.1,4.21-1,5.32-.66.57.17,1.45.56,2.15.14.32-.19.38-.42.99-1.57.89-1.67,1.12-1.84,1.32-1.92.73-.31,1.64.3,2.02.56,2.01,1.35,2.49,3.97,2.62,5.09Z" style="fill: #a9d8ea; opacity: .8;"/>
      <path d="M14.54,7.27c0,4.02-3.25,7.27-7.27,7.27S0,11.29,0,7.27c0-.18,0-.36.02-.54,0,0,0-.01,0-.02.08.13.21.33.41.54,1.71,1.8,6.04,1.87,8.91,0,1.11-.73,2.04-1.77,3.69-1.82.56-.02,1.02.09,1.32.17.13.54.19,1.09.19,1.67Z" style="fill: #3e9cc1; opacity: .8;"/>
      <path d="M14.42,8.61c-.63,3.38-3.59,5.94-7.15,5.94S.47,11.73.05,8.12c2.29-1.61,4.03-1.79,5.2-1.66,1.91.22,2.81,1.34,5.5,1.91,1.52.33,2.83.31,3.67.24Z" style="fill: #0077b2; opacity: .8;"/>
    </g>
  </g>
</svg>