<?xml version="1.0" encoding="UTF-8"?>
<svg id="b" data-name="Layer 2" xmlns="http://www.w3.org/2000/svg" viewBox="0 0 114.44 114.2">
  <g id="c" data-name="Layer 3">
    <g>
      <path d="M6.96,57.1c0,26.52,20.54,48.24,46.58,50.12v6.98C23.65,112.3,0,87.46,0,57.1S23.65,1.9,53.54,0v6.98C27.5,8.86,6.96,30.58,6.96,57.1Z" style="fill: #1e1e1e;"/>
      <path d="M114.44,57.1c0,30.36-23.65,55.2-53.54,57.1v-6.98c26.04-1.88,46.58-23.6,46.58-50.12S86.94,8.86,60.9,6.98V0c29.89,1.9,53.54,26.74,53.54,57.1Z" style="fill: #1e1e1e;"/>
      <path d="M94.81,60.43c-1.68,19.29-17.86,34.41-37.59,34.41s-35.91-15.12-37.59-34.41h9.08c1.64,14.29,13.78,25.38,28.51,25.38s26.87-11.09,28.51-25.38h9.08Z" style="fill: #1e1e1e;"/>
      <path d="M94.81,53.77h-9.08c-1.64-14.29-13.78-25.38-28.51-25.38s-26.87,11.09-28.51,25.38h-9.08c1.68-19.29,17.86-34.41,37.59-34.41s35.91,15.12,37.59,34.41Z" style="fill: #1e1e1e;"/>
    </g>
  </g>
</svg>