<?xml version="1.0" encoding="UTF-8"?>
<svg id="b" data-name="Layer 2" xmlns="http://www.w3.org/2000/svg" viewBox="0 0 126.22 126.22">
  <g id="c" data-name="Layer 1">
    <g>
      <circle cx="63.11" cy="63.11" r="63.11" style="opacity: .1;"/>
      <path d="M125.37,73.43h0c-4.92,29.96-30.92,52.79-62.26,52.79C28.26,126.22,0,97.97,0,63.11c0-.92.02-1.84.06-2.76.06-.38.11-.76.16-1.14,21.92-9.55,36.56-8.7,46.17-5.74,4.9,1.51,12.62,4.83,18.67,1.19,2.78-1.68,3.27-3.66,8.59-13.63,7.74-14.49,9.73-15.97,11.46-16.7,6.36-2.67,14.2,2.63,17.56,4.89,17.44,11.74,21.58,34.42,22.7,44.22Z" style="fill: #ccc; opacity: .8;"/>
      <path d="M126.22,63.11c0,34.86-28.25,63.11-63.11,63.11S0,97.97,0,63.11c0-1.58.06-3.14.17-4.68.02-.06.03-.13.05-.19.69,1.15,1.84,2.87,3.56,4.67,14.88,15.6,52.45,16.25,77.33,0,9.68-6.32,17.68-15.36,32-15.78,4.85-.14,8.86.75,11.44,1.51,1.09,4.65,1.67,9.49,1.67,14.47Z" style="fill: #848484; opacity: .8;"/>
      <path d="M125.15,74.7c-5.43,29.32-31.14,51.52-62.04,51.52S4.07,101.86.43,70.46c19.89-14,35.01-15.58,45.13-14.44,16.62,1.87,24.35,11.61,47.7,16.59,13.22,2.83,24.54,2.65,31.89,2.09Z" style="fill: #5a5a5a; opacity: .8;"/>
    </g>
  </g>
</svg>